<?xml version="1.0" encoding="utf-8"?>
<!-- Generator: Adobe Illustrator 20.0.0, SVG Export Plug-In . SVG Version: 6.00 Build 0)  -->
<svg version="1.1" id="Layer_1" xmlns="http://www.w3.org/2000/svg" xmlns:xlink="http://www.w3.org/1999/xlink" x="0px" y="0px"
	 viewBox="0 0 318.2 318.2" style="enable-background:new 0 0 318.2 318.2;" xml:space="preserve">
<style type="text/css">
	.st0{fill:#E50A1A;}
</style>
<title>ichibanteriyaki</title>
<circle class="st0" cx="159.1" cy="159.1" r="159.1"/>
<path d="M235.1,64.9c-3.3,2.6-7.6,3.5-11.7,2.7c-6.4-1-12.8-2.3-19.2-2.3c-14.7-0.1-29.4,0.3-44,1c-8.8,0.4-17.6,1.8-26.4,2.7
	c-8.8,0.8-17.6,2.2-26.2,4.2c-3.6,0.9-7.3,1.7-10.9,2.7c-3.3,1-6.9,0.3-9.6-1.8c-3.9-2.8-7.3-6.3-10-10.2c-0.8-1.2-2.1-2.4-1.1-4.6
	c4.3-0.4,8.8-0.9,13.3-1.4c8.7-1,17.3-1.9,25.9-2.8c4.1-0.4,8.1-0.8,12.2-1.3c11.8-1.3,23.7-2.7,35.5-4c9.6-1.1,19.3-2.3,28.9-3.3
	c6.2-0.7,12.5-1.7,18.8-1.7c9.5,0,17.4,4.2,23.8,11.2C236.8,58.5,236.3,61.5,235.1,64.9z"/>
<path d="M170.4,93.2c9.5,0.8,19,8.3,20.5,15.8c-1.1,2-3,2.5-5.1,2.9c-8.2,1.6-16.3,3.4-24.4,5.2c-0.9,0.3-1.9,0.7-2.7,1.1l5.6,3.4
	c-1,4.9-2.3,9.4-2.7,14.1c-0.5,4.6-0.1,9.3,1,13.8c8.3-1.2,16.3-2.5,24.4-3.6c3.9-0.5,7.8-0.8,11.7-1.1c0.5-0.1,1-0.1,1.5,0
	c5.9,1.8,11.6,4,15.9,8.8c0.6,0.8,1.1,1.7,1.5,2.6l-1.5,4.1c-3.2,1.2-6.5,1.6-9.9,1.1c-9-0.9-18-1.9-27-0.7c-4,0.5-8.2,0.1-13,0.1
	c0.4,0.7,0.9,1.3,1.5,1.9c9.8,6.9,20,13.1,30.5,18.7c9.7,5.1,20.3,7.9,30.9,10.4c6.3,1.5,12.6,2.8,18.9,4.2c0.5,0.1,0.9,0.3,1.3,0.6
	c0.5,1.7-0.6,2.3-1.9,2.5c-5,1-9.9,2.4-15,2.8c-7.8,0.7-15.7,0.7-23.5,1.1c-5,0.2-9.3-1.4-13.3-4.2c-10.5-7.3-20.3-15.7-29.1-25
	c-0.8-0.9-1.7-1.6-2.8-2.6c0,6,0,11.6,0,17.2c0.1,2.2,0,4.4-0.3,6.6c-0.6,4.3-3.7,6.8-7.1,8.9c-1.8,1.1-4,0.3-5.4-1.6
	c-1.8-2.3-2.8-5.1-2.9-8c0-5-0.1-9.9-0.1-14.9c0-1.9,0-3.7,0-5.9c-8,6.1-15.6,12.1-23.4,17.7c-7.8,5.5-16.3,9.9-25.3,13.2
	c-9,3.3-18.1,6.3-27.6,7.8c14.7-8.8,29.2-17.7,43.3-27.4c8.4-5.8,19-15.4,23.8-21.7c-13.8,0.5-26.6,4.7-39,7.6
	c-5.4-2.9-9.3-6.3-12.2-11.4c0.8-0.5,1.7-1,2.6-1.3c9.1-1.1,18.3-2.1,27.4-3.2c9.5-1.1,19-2.1,28.4-3.2c0.5-0.1,0.9-0.3,1.3-0.5
	c1.6-8.4,0.6-23.1-2.2-30.2c-10.7,1.6-21.7,3.4-33.6,1.8c1.3-0.9,1.8-1.5,2.5-1.6c10.7-2,21.2-5.1,31.2-9.3c5.5-2.3,10.8-5,16.1-7.8
	C165.6,101.7,169,98.3,170.4,93.2z"/>
<path d="M183.3,281.2c-2.9-5.1-2.5-11-4.9-16.6c-17.2,0.5-34.4,1.9-51.6,4.1c-1.6,2.7-1.6,6.4-5.7,6.9c-4.6-1.1-7.2-4.3-8-8.8
	c-1.2-6.5-2.3-13-3-19.6c-0.9-9.7-2.8-19.2-5.7-28.4c-1.1-2.9-2.4-5.7-3.8-8.4l2.3-3.1c6.6,0.4,12.4,1.8,18,5.9
	c7.6-1.5,15.6-3.1,23.6-4.5c7.2-1.3,14.4-2.3,21.7-3.4c5.5-0.9,11.1-1.5,16.3-3.8c2.7-1.2,5.8-1.1,8.3,0.4c5.3,3,10.8,5.8,16.2,8.8
	c1.6,0.9,2.8,2.4,4.5,3.8c-1.2,2.3-2.3,4.3-3.5,6.4c-2.3,4-3.5,8.6-3.6,13.2c-0.2,7.8-0.7,15.7-1.2,23.5s-3.4,14.5-10.5,18.8
	c-2.2,1.3-4.2,2.9-6.4,4.2C185.4,280.8,184.3,281.1,183.3,281.2z M159.4,254.6c3.8-0.7,6.9-1.3,10.1-1.7c4.6-0.6,9.3-2.1,13.9,0.1
	c3.9-10.9,2.7-22.1,2.4-33.1c-0.1-3.1-2.5-5.2-5.9-5.3c-6.1-0.2-12.3,0.2-18.4,0.4c-0.4,0.2-0.8,0.5-1.1,0.9l2.6,3l-1.2,8.1
	c1.9-0.1,3.8-0.1,5.7,0c2,0.2,4.1,0.6,6,1.2c4.2,1.5,5.4,3.9,4.8,9.1l-17.9,3.8L159.4,254.6z M144.2,217.7c-7.5,1.6-15,2.4-22.2,5.3
	l3.3,34.1c6.4,0.5,18.3-0.6,21.5-2.1v-11.6c-0.5-0.1-1.1-0.2-1.7-0.3c-1.4,0.1-2.7,0.2-4.1,0.3c-6,0.7-10.6-1.6-13.6-7.3
	c6-3.4,13.1-2.6,19.3-5.4C146.7,226.3,147.7,221.7,144.2,217.7L144.2,217.7z"/>
<path d="M168.8,144.8c6.9-8.7,13-16.7,15.7-26.4c5.6-0.1,12.6,4.7,17.9,12.1c-0.9,0.8-1.7,2-2.8,2.4c-9,3.9-18.1,7.7-27.2,11.4
	C171.8,144.7,170.9,144.6,168.8,144.8z"/>
<path d="M125.9,151.9c-6.2-5-9.1-11.7-12.8-18.4c6.9-0.9,12.8,1.2,18.1,4.5c4.3,2.7,3.7,9.2-0.7,12
	C129,150.8,127.5,151.4,125.9,151.9z"/>
</svg>
