<svg id="Layer_1" data-name="Layer 1" xmlns="http://www.w3.org/2000/svg" viewBox="0 0 318.2 318.2"><defs><style>.cls-1{fill:#e50a1a;}</style></defs><title>ichibanteriyaki</title><circle class="cls-1" cx="159.1" cy="159.1" r="159.1"/><path d="M235.05,73.89a14.31,14.31,0,0,1-11.67,2.67c-6.37-1-12.81-2.27-19.22-2.3-14.67-.07-29.36.28-44,1-8.82.41-17.59,1.81-26.39,2.67A195.89,195.89,0,0,0,107.6,82.1c-3.64.86-7.28,1.68-10.88,2.69A10.59,10.59,0,0,1,87.11,83a42.73,42.73,0,0,1-10-10.18c-0.84-1.18-2.05-2.41-1.09-4.62,4.26-.44,8.78-0.9,13.3-1.39C98,65.85,106.6,64.89,115.23,64c4.06-.44,8.13-0.81,12.2-1.26q17.76-2,35.51-4c9.64-1.1,19.26-2.28,28.91-3.35,6.25-.69,12.53-1.74,18.79-1.71,9.47,0.05,17.39,4.22,23.75,11.21C236.75,67.48,236.26,70.48,235.05,73.89Z"/><path d="M170.43,102.23c9.51,0.77,19,8.34,20.46,15.77-1.09,2-3,2.46-5.08,2.88-8.16,1.64-16.29,3.41-24.42,5.19a16,16,0,0,0-2.74,1.14l5.63,3.4c-1,4.9-2.28,9.45-2.71,14.09a40.64,40.64,0,0,0,1,13.84c8.29-1.25,16.32-2.54,24.37-3.65,3.88-.54,7.81-0.75,11.71-1.1a4.28,4.28,0,0,1,1.53,0c5.94,1.75,11.6,4,15.9,8.75a14.75,14.75,0,0,1,1.46,2.6L216,169.27a20.79,20.79,0,0,1-9.88,1.15c-9-.85-18-1.92-27-0.72-4,.53-8.16.09-13,0.09a11.23,11.23,0,0,0,1.5,1.93,274.39,274.39,0,0,0,30.54,18.67c9.71,5.09,20.26,7.89,30.86,10.4,6.28,1.49,12.61,2.78,18.91,4.18a6.64,6.64,0,0,1,1.3.59c0.46,1.73-.64,2.27-1.85,2.51-5,1-9.95,2.36-15,2.82-7.81.7-15.67,0.74-23.51,1.13-5,.25-9.28-1.4-13.34-4.25a180.1,180.1,0,0,1-29.05-25c-0.8-.86-1.72-1.6-2.83-2.62,0,6,0,11.61,0,17.23a46.57,46.57,0,0,1-.27,6.59c-0.64,4.26-3.72,6.82-7.08,8.93-1.78,1.12-4,.33-5.4-1.58a13.21,13.21,0,0,1-2.87-8c0-5-.08-9.91-0.12-14.87,0-1.87,0-3.73,0-5.89-8,6.09-15.55,12.13-23.4,17.72a108.08,108.08,0,0,1-25.33,13.16c-9,3.34-18.08,6.29-27.58,7.79,14.74-8.78,29.24-17.73,43.27-27.44,8.41-5.83,19-15.38,23.84-21.71-13.84.52-26.6,4.66-39,7.6-5.44-2.88-9.33-6.33-12.19-11.42A9.81,9.81,0,0,1,90.11,167c9.13-1.11,18.27-2.13,27.4-3.16,9.47-1.07,19-2.12,28.42-3.21a5.09,5.09,0,0,0,1.32-.54c1.65-8.42.65-23.1-2.19-30.2-10.74,1.64-21.65,3.41-33.6,1.83,1.28-.86,1.82-1.49,2.47-1.62a151,151,0,0,0,31.23-9.3c5.47-2.35,10.82-5,16.1-7.8C165.61,110.68,169,107.34,170.43,102.23Z"/><path d="M183.29,290.25c-2.93-5.1-2.52-11-4.92-16.61a509.26,509.26,0,0,0-51.55,4.12c-1.61,2.66-1.59,6.42-5.65,6.93-4.61-1.06-7.17-4.31-8-8.8-1.22-6.51-2.32-13.05-3-19.63a140.31,140.31,0,0,0-5.69-28.45,92.35,92.35,0,0,0-3.76-8.45l2.26-3.13c6.57,0.38,12.42,1.78,18,5.86,7.63-1.46,15.59-3.09,23.59-4.49,7.2-1.26,14.44-2.28,21.66-3.41,5.53-.86,11.11-1.5,16.34-3.75a8.91,8.91,0,0,1,8.3.45c5.34,3,10.84,5.75,16.17,8.77,1.58,0.9,2.84,2.37,4.48,3.77-1.24,2.28-2.33,4.34-3.48,6.36A27.69,27.69,0,0,0,204.44,243c-0.22,7.84-.67,15.67-1.16,23.5s-3.44,14.5-10.51,18.78c-2.18,1.32-4.22,2.88-6.41,4.18A12.57,12.57,0,0,1,183.29,290.25Zm-23.85-26.69c3.79-.66,6.93-1.34,10.11-1.74,4.63-.59,9.28-2.07,13.87.1,3.9-10.94,2.67-22.07,2.39-33.09-0.08-3.06-2.46-5.24-5.9-5.34-6.12-.19-12.26.17-18.38,0.36a2.75,2.75,0,0,0-1.08.92l2.62,3-1.24,8.09a53.26,53.26,0,0,1,5.73,0,26.42,26.42,0,0,1,6,1.24c4.2,1.51,5.45,3.92,4.84,9.11l-17.88,3.81Zm-15.2-36.84c-7.53,1.6-15,2.43-22.17,5.33l3.33,34.11c6.42,0.55,18.32-.65,21.48-2.13V252.45a8.76,8.76,0,0,0-1.68-.28c-1.36.07-2.72,0.18-4.07,0.34-6,.71-10.56-1.63-13.59-7.34,6-3.38,13.13-2.63,19.33-5.38C146.74,235.26,147.73,230.72,144.25,226.72Z"/><path d="M168.84,153.76c6.94-8.71,13-16.71,15.74-26.41,5.57-.06,12.61,4.72,17.92,12.15-0.89.8-1.68,2-2.78,2.45-9,3.9-18.09,7.69-27.17,11.45C171.82,153.7,170.91,153.58,168.84,153.76Z"/><path d="M125.93,160.94c-6.18-5-9.07-11.7-12.8-18.39,6.92-.94,12.78,1.16,18.08,4.49,4.28,2.68,3.73,9.23-.68,12A32.1,32.1,0,0,1,125.93,160.94Z"/></svg>